# xmcd
# 
# Track frame offsets:
#     150
#     15605
#     35000
#     51903
#     68274
#     86322
#     105464
#     121048
#     131944
#     149779
#     167027
#     181908
#     203302
#     218963
# 
# Disc length: 3118
# 
# Revision: 4
# Processed by: cddbd v1.5.2PL0 Copyright (c) Steve Scherf et al.
# Submitted via: fre:ac v1.0.31
# 
DISCID=bd0c2c0e
DTITLE=Big Daddy Wilson - Time
DYEAR=2015
DGENRE=Blues
TTITLE0=Time To Move
TTITLE1=Bullfrog
TTITLE2=She Loves Me
TTITLE3=Mississippi John
TTITLE4=Some Say
TTITLE5=Time
TTITLE6=Dead End Road
TTITLE7=Would Ya Look At That Car
TTITLE8=Like A Sunny Day
TTITLE9=New Zealand
TTITLE10=Miss Dorothy Lee
TTITLE11=Mama's Words
TTITLE12=We're Ready
TTITLE13=Daisy
EXTD=
EXTT0=
EXTT1=
EXTT2=
EXTT3=
EXTT4=
EXTT5=
EXTT6=
EXTT7=
EXTT8=
EXTT9=
EXTT10=
EXTT11=
EXTT12=
EXTT13=
PLAYORDER=
